<svg height="512pt" viewBox="-43 0 512 512" width="512pt" xmlns="http://www.w3.org/2000/svg"><path d="M213.332 512c-44.117 0-80-35.883-80-80 0-8.832 7.168-16 16-16s16 7.168 16 16c0 26.477 21.527 48 48 48 26.477 0 48-21.523 48-48 0-8.832 7.168-16 16-16s16 7.168 16 16c0 44.117-35.883 80-80 80zm0 0"/><path d="M389.332 448h-352C16.746 448 0 431.254 0 410.668a37.314 37.314 0 0113.055-28.375C45.504 354.879 64 315.031 64 272.813v-59.481C64 130.988 130.988 64 213.332 64c82.348 0 149.336 66.988 149.336 149.332v59.48c0 42.22 18.496 82.067 50.73 109.333 8.512 7.253 13.27 17.597 13.27 28.523 0 20.586-16.746 37.332-37.336 37.332zm-176-352C148.629 96 96 148.629 96 213.332v59.48c0 51.645-22.633 100.415-62.078 133.758-.75.64-1.922 1.965-1.922 4.098 0 2.898 2.434 5.332 5.332 5.332h352c2.902 0 5.336-2.434 5.336-5.332 0-2.133-1.176-3.457-1.879-4.055-39.488-33.386-62.121-82.156-62.121-133.8v-59.481C330.668 148.629 278.039 96 213.332 96zm0 0"/><path d="M213.332 96c-8.832 0-16-7.168-16-16V16c0-8.832 7.168-16 16-16s16 7.168 16 16v64c0 8.832-7.168 16-16 16zm0 0"/></svg>