<svg width="1440" height="161" xmlns="http://www.w3.org/2000/svg">
 <g>
  <title>background</title>
  <rect x="-1" y="-1" width="1442" height="163" id="canvas_background" fill="none"/>
 </g>

 <g>
  <title>Layer 1</title>
  <path transform="rotate(-180 719,81) " fill="#C8A23B" d="m-1,97l40,-16c40,-16 120,-48 200,-42.7c80,5.7 160,47.7 240,64c80,15.7 160,5.7 240,-21.3c80,-27 160,-69 240,-64c80,5 160,59 240,64c80,5 160,-37 200,-58.7l40,-21.3l0,160l-40,0c-40,0 -120,0 -200,0c-80,0 -160,0 -240,0c-80,0 -160,0 -240,0c-80,0 -160,0 -240,0c-80,0 -160,0 -240,0c-80,0 -160,0 -200,0l-40,0l0,-64z" id="svg_1"/>
 </g>
</svg>